PathFileType	4	(X/Y/Z)	static.trc
DataRate	CameraRate	NumFrames	NumMarkers	Units	OrigDataRate	OrigDataStartFrame	OrigNumFrames
250.000000	250.000000	4	58	mm	250.000000	422	483
Frame#	Time	RASI			LASI			RPSI			LPSI			RAIC			LAIC			RLFC			RMFC			RTH1			RTH2			RTH3			RLMAL			RMMAL			RTB1			RTB2			RTB3			RCAL			RMT1			RMT5			LLFC			LMFC			LTH1			LTH2			LTH3			LLMAL			LMMAL			LTB1			LTB2			LTB3			LCAL			LMT1			LMT5			C7			T10			CLAV			STRN			RACR			LACR			RHJC			LHJC			RKJC			LKJC			RAJC			LAJC			RMT3			LMT3			fRCAL			fLCAL			fRAJC			fLAJC			fRMT1			fLMT1			fRMT5			fLMT5			fRMT3			fLMT3			MTOR			MPEL			
		X1	Y1	Z1	X2	Y2	Z2	X3	Y3	Z3	X4	Y4	Z4	X5	Y5	Z5	X6	Y6	Z6	X7	Y7	Z7	X8	Y8	Z8	X9	Y9	Z9	X10	Y10	Z10	X11	Y11	Z11	X12	Y12	Z12	X13	Y13	Z13	X14	Y14	Z14	X15	Y15	Z15	X16	Y16	Z16	X17	Y17	Z17	X18	Y18	Z18	X19	Y19	Z19	X20	Y20	Z20	X21	Y21	Z21	X22	Y22	Z22	X23	Y23	Z23	X24	Y24	Z24	X25	Y25	Z25	X26	Y26	Z26	X27	Y27	Z27	X28	Y28	Z28	X29	Y29	Z29	X30	Y30	Z30	X31	Y31	Z31	X32	Y32	Z32	X33	Y33	Z33	X34	Y34	Z34	X35	Y35	Z35	X36	Y36	Z36	X37	Y37	Z37	X38	Y38	Z38	X39	Y39	Z39	X40	Y40	Z40	X41	Y41	Z41	X42	Y42	Z42	X43	Y43	Z43	X44	Y44	Z44	X45	Y45	Z45	X46	Y46	Z46	X47	Y47	Z47	X48	Y48	Z48	X49	Y49	Z49	X50	Y50	Z50	X51	Y51	Z51	X52	Y52	Z52	X53	Y53	Z53	X54	Y54	Z54	X55	Y55	Z55	X56	Y56	Z56	X57	Y57	Z57	X58	Y58	Z58	

423	1.688	522.366882324219	1043.11669921875	408.1095886230471	517.832214355469	1060.189453125	191.5434570312501	343.5418395996095	1079.95361328125	357.4751892089845	344.8278198242189	1085.842529296875	261.7175903320314	447.5634765625002	1112.676513671875	459.7426452636721	457.0758056640627	1126.764038085938	162.5189819335938	420.3645324707034	551.2443847656252	491.270202636719	406.2527465820315	520.774597167969	370.7502746582032	442.9549255371096	805.4652709960942	502.6240539550784	488.9393005371096	713.1872558593752	491.0495605468752	425.8568420410159	628.3372192382815	493.3628234863284	366.3960266113282	95.94337463378909	507.5347595214846	396.0982055664065	105.4586868286133	417.4243774414065	435.8833923339846	396.7503662109377	427.9176025390627	443.5708312988284	330.789764404297	483.4645690917971	427.6395263671877	257.9542846679689	442.2920532226565	312.3189697265626	44.27407836914064	455.0137023925784	530.8160400390627	47.30906677246095	445.7671203613284	519.616149902344	43.6267547607422	554.8643798828127	420.1468200683596	545.7026977539065	110.1917419433594	411.1830749511721	519.9104614257815	232.806121826172	439.088317871094	832.3664550781255	103.8825912475587	478.2967224121096	741.2169189453127	107.8079528808594	414.0348205566409	660.1085205078127	112.0547027587891	372.1121520996095	100.1249771118165	88.00859069824222	400.353942871094	102.7505493164063	178.9778289794922	439.7627258300784	395.8382568359377	170.8420715332032	450.584655761719	324.3639221191407	122.1580429077149	425.0901489257815	257.9764404296876	167.2383880615235	318.0848999023439	44.54636383056642	134.2560577392579	541.6981201171877	43.12352371215822	162.4670104980469	533.1791992187502	41.3176956176758	52.47484970092776	348.7055664062501	1540.524780273438	312.0032958984376	333.5654602050782	1268.091552734375	308.7457275390626	488.4725341796877	1502.484741210938	316.3574829101564	567.8388671875002	1323.277221679688	313.4974365234376	347.4917602539064	1530.2041015625	489.5708618164065	346.791961669922	1535.241455078125	143.9086303710938	467.7114017130372	989.6174317357741	367.9825961092164	464.7182161568816	1000.886596479069	225.0343975861511	413.3086395263674	536.0094909667971	431.0102386474611	415.6649475097659	532.806579589844	171.4989318847657	381.2471160888673	100.7010307312012	462.4795684814455	386.2330474853517	101.4377632141114	133.4932098388672	525.2160949707034	45.46791076660158	500.3157501220705	537.438659667969	42.22060966491701	107.4709300994873	312.3189697265626	0	455.0137023925784	318.0848999023439	0	134.2560577392579	381.2471160888673	0	462.4795684814455	386.2330474853517	0	133.4932098388672	530.8160400390627	0	445.7671203613284	541.6981201171877	0	162.4670104980469	519.616149902344	0	554.8643798828127	533.1791992187502	0	52.47484970092776	525.2160949707034	0	500.3157501220705	537.438659667969	0	107.4709300994873	382.8654556274415	1527.11376953125	315.4600677490236	432.1421890258791	1067.275573730469	304.7114562988282	
424	1.692	522.4619750976565	1043.130493164063	408.2126770019534	517.798034667969	1060.203125	191.5073699951172	343.6035461425782	1079.96826171875	357.5599975585939	344.8004150390626	1085.845336914063	261.7496337890626	447.5727844238284	1112.64697265625	459.7616271972659	456.9868774414065	1126.767333984375	162.4909973144532	420.3533325195315	551.2576293945315	491.2767333984377	406.2592773437502	520.782165527344	370.7140197753907	442.9575500488284	805.5112304687505	502.5955810546877	488.9392395019534	713.183044433594	491.0823059082034	425.9956359863284	628.556091308594	493.2601013183596	366.4558105468751	95.93315887451175	507.539733886719	396.0654907226565	105.4515914916993	417.3778991699221	435.8560791015627	396.7353515625002	427.9025878906252	443.561218261719	330.7899780273439	483.4548034667971	427.6716308593752	257.9916992187501	442.328796386719	312.3275451660157	44.27157211303712	455.098571777344	530.7956542968752	47.31859207153322	445.7463073730471	519.6060180664065	43.62475967407228	554.8335571289065	420.1827087402346	545.764587402344	110.1924514770508	411.1398620605471	519.8883056640627	232.7783966064454	439.0684509277346	832.347045898438	103.8392715454102	478.2377014160159	741.2449951171877	107.7848129272462	414.0047302246096	660.1400146484377	112.0443725585938	372.1726684570314	100.0869979858399	88.1187438964844	400.3757934570315	102.7544555664063	178.9994659423829	439.7644348144534	395.8348083496096	170.8410644531251	450.5846862792971	324.3543395996095	122.166618347168	425.047058105469	257.959442138672	167.2139739990235	318.0677185058595	44.55532073974611	134.2212677001954	541.7918090820315	43.11080169677736	162.6237792968751	533.2146606445315	41.30661010742189	52.52678680419925	348.7819824218751	1540.553344726563	312.007781982422	333.5483703613282	1268.11669921875	308.7795715332032	488.4722900390627	1502.448486328125	316.3006591796876	567.827087402344	1323.216552734375	313.5116577148439	347.5493469238282	1530.217163085938	489.5618896484377	346.8087463378907	1535.230346679688	143.8881988525391	467.7763693545443	989.585659170451	368.0929187207937	464.6978554918599	1000.854742592891	225.0528645444294	413.3063049316409	536.0198974609377	430.9953765869142	415.6612854003909	532.8264465332034	171.4854240417481	381.2606506347658	100.6923751831055	462.4588165283205	386.2742309570315	101.4207267761231	133.5591049194337	525.2008361816409	45.47167587280275	500.2899322509768	537.5032348632815	42.20870590209962	107.5752830505372	312.3275451660157	0	455.098571777344	318.0677185058595	0	134.2212677001954	381.2606506347658	0	462.4588165283205	386.2742309570315	0	133.5591049194337	530.7956542968752	0	445.7463073730471	541.7918090820315	0	162.6237792968751	519.6060180664065	0	554.8335571289065	533.2146606445315	0	52.52678680419925	525.2008361816409	0	500.2899322509768	537.5032348632815	0	107.5752830505372	382.9030914306642	1527.112335205079	315.4396324157716	432.1659927368166	1067.286804199219	304.7574195861818	
425	1.696	522.4404296875002	1043.099731445313	408.149108886719	517.757995605469	1060.216674804688	191.4595336914063	343.591278076172	1079.944580078125	357.6114807128907	344.7916564941407	1085.829223632813	261.7760314941407	447.5555419921877	1112.635009765625	459.7558898925784	456.9339904785159	1126.791015625	162.4719238281251	420.332702636719	551.249938964844	491.2613220214846	406.2930603027346	520.7753906250002	370.7324218750001	442.9406738281252	805.498413085938	502.5876159667971	488.9426879882815	713.2099609375002	491.0603332519534	425.8443908691409	628.4058227539065	493.342712402344	366.4444580078126	95.99958038330081	507.5465393066409	396.0668640136721	105.4275665283204	417.3774719238284	435.8610839843752	396.7589111328127	427.8793945312502	443.5991821289065	330.8136596679689	483.4403381347659	427.6506347656252	257.9776306152345	442.2776184082034	312.2915649414064	44.25157546997072	455.1763916015627	530.8361816406252	47.32021331787111	445.7733459472659	519.5872192382815	43.60621643066408	554.8563232421877	420.1488952636721	545.8137817382815	110.1649169921876	411.1295166015627	519.934753417969	232.8111419677736	438.9927062988284	832.3882446289067	103.8168411254883	478.1919555664065	741.271667480469	107.7532958984376	413.9821777343752	660.1645507812502	112.0249862670899	372.1032104492189	100.1738662719727	88.00041198730472	400.3530578613284	102.7703018188477	179.0202178955079	439.7426757812502	395.844909667969	170.8260040283204	450.5735778808596	324.3682250976564	122.1795730590821	425.0635986328127	257.9723510742189	167.2441558837891	318.086151123047	44.53762817382814	134.2516479492188	541.756774902344	43.127742767334	162.5852813720704	533.1666259765627	41.34644317626955	52.46992111206058	348.7988586425782	1540.562133789063	311.9808654785157	333.5052185058595	1268.117797851563	308.8096008300782	488.545104980469	1502.41845703125	316.264862060547	567.7916259765627	1323.150146484375	313.4879455566407	347.6069335937501	1530.224365234375	489.5357971191409	346.8264465332032	1535.241943359375	143.8921508789063	467.756044960821	989.5658118879259	368.0250157734137	464.6653240286969	1000.864143953682	224.9953448594527	413.3128814697268	536.0126647949221	430.9968719482424	415.6392059326174	532.8742675781252	171.4880294799806	381.2556610107424	100.7135734558106	462.4620056152347	386.2281341552737	101.4720840454102	133.5103149414063	525.2117004394534	45.46321487426759	500.3148345947268	537.4617004394534	42.23709297180177	107.5276012420655	312.2915649414064	0	455.1763916015627	318.086151123047	0	134.2516479492188	381.2556610107424	0	462.4620056152347	386.2281341552737	0	133.5103149414063	530.8361816406252	0	445.7733459472659	541.756774902344	0	162.5852813720704	519.5872192382815	0	554.8563232421877	533.1666259765627	0	52.46992111206058	525.2117004394534	0	500.3148345947268	537.4617004394534	0	107.5276012420655	382.9443359375001	1527.111724853516	315.4184188842775	432.1453399658205	1067.272552490235	304.7490386962892	
426	1.7	522.3903808593752	1043.126342773438	408.064147949219	517.6956787109377	1060.21923828125	191.4359283447266	343.5916748046876	1079.972290039063	357.5108337402345	344.7623291015626	1085.833862304688	261.7909545898439	447.5392150878909	1112.648193359375	459.756042480469	456.8211364746096	1126.809936523438	162.4055328369141	420.3359680175784	551.2669677734377	491.2491455078127	406.2720031738284	520.7988281250002	370.6768798828126	442.9136352539065	805.4806518554692	502.5860595703127	488.9433593750002	713.204772949219	491.0747070312502	425.8213500976565	628.4260253906252	493.3210754394534	366.4759521484376	95.91355133056643	507.5752868652346	396.0954284667971	105.4236373901368	417.4004516601565	435.8592224121096	396.7466735839846	427.8775329589846	443.5982971191409	330.8252563476564	483.437438964844	427.657165527344	258.0305786132814	442.2639160156252	312.3052978515626	44.27190017700197	455.1109619140627	530.8164672851565	47.3196258544922	445.7647399902346	519.6143798828127	43.62732315063478	554.8342285156252	420.1595764160159	545.719421386719	110.1908721923829	410.746765136719	519.8081054687502	232.5476226806642	438.9570007324221	832.409057617188	103.7906112670899	478.1649169921877	741.2603759765627	107.7295684814454	413.9334716796877	660.1760253906252	112.0380020141602	372.1057128906251	100.1371307373047	87.9961853027344	400.373474121094	102.736198425293	179.0238647460938	439.7249450683596	395.8392028808596	170.8089447021485	450.5622558593752	324.3846740722657	122.1553573608399	425.048034667969	257.9800415039064	167.2200012207032	318.0751037597657	44.54344940185548	134.2430572509766	540.9505615234377	42.9029006958008	162.251205444336	533.193054199219	41.32687759399415	52.49240875244143	348.8531494140626	1540.597412109376	311.9645080566407	333.4872131347657	1268.120483398438	308.8213500976564	488.5181274414065	1502.366943359375	316.2494506835939	567.7929687500002	1323.109497070313	313.458221435547	347.6635131835939	1530.235717773438	489.5544128417971	346.8469238281251	1535.21044921875	143.8771057128907	467.7139223833476	989.6073062515228	367.9601497802007	464.6151036125034	1000.889765451903	224.9709734746613	413.3039855957034	536.032897949219	430.9630126953127	415.4531707763674	532.7637634277346	171.3692474365236	381.2856903076174	100.6685943603516	462.4878692626955	386.2395935058595	101.4366645812989	133.5100250244141	525.2154235839846	45.47347450256349	500.2994842529299	537.0718078613284	42.11488914489748	107.3718070983887	312.3052978515626	0	455.1109619140627	318.0751037597657	0	134.2430572509766	381.2856903076174	0	462.4878692626955	386.2395935058595	0	133.5100250244141	530.8164672851565	0	445.7647399902346	540.9505615234377	0	162.251205444336	519.6143798828127	0	554.8342285156252	533.193054199219	0	52.49240875244143	525.2154235839846	0	500.2994842529299	537.0718078613284	0	107.3718070983887	382.970428466797	1527.102630615235	315.4113693237306	432.1100158691408	1067.28793334961	304.700466156006	
